Coordinates
version=1
nRows=19
nColumns=24
inDegrees=yes

Units are S.I. units (second, meters, Newtons, ...)
Angles are in degrees.

endheader
time	torso_tilt	torso_list	torso_rotation	torso_tx	torso_ty	torso_tz	lumbar_extension	lumbar_bending	lumbar_rotation	hip_flexion_r	hip_adduction_r	hip_rotation_r	knee_angle_r	ankle_angle_r	subtalar_angle_r	mtp_angle_r	hip_flexion_l	hip_adduction_l	hip_rotation_l	knee_angle_l	ankle_angle_l	subtalar_angle_l	mtp_angle_l
     15.24000000	     -9.75934491	      1.53531282	     -5.81316883	     -0.10104980	      1.00796988	     -0.00955703	     11.84637835	      0.68826767	      7.72136597	     15.51229905	     -4.74810774	    -11.15354415	    -66.19925763	      1.77817770	     -3.33490561	      0.00000000	     -0.45069955	      5.10136925	      1.22770086	     -7.65779964	      7.26947568	      0.60447283	      0.00000000
     15.25000000	     -9.82940403	      1.57590401	     -5.91754068	     -0.10248284	      1.00863584	     -0.00988069	     11.80063053	      0.43518429	      7.99492377	     16.73339078	     -4.47300208	    -11.44283057	    -64.92324636	      2.50327239	     -3.39873044	      0.00000000	     -1.12909870	      4.81953830	      1.26127751	     -7.18515091	      7.52239300	      0.90334810	      0.00000000
     15.26000000	     -9.91891821	      1.60271980	     -6.03135435	     -0.10398224	      1.00905878	     -0.01006088	     11.81360047	      0.25182688	      8.27891489	     17.83678273	     -4.22398657	    -11.69415229	    -63.37301495	      3.20406351	     -3.64942800	      0.00000000	     -1.80077645	      4.57848397	      1.32733158	     -6.80321393	      7.83579368	      1.21816300	      0.00000000
     15.27000000	    -10.01040426	      1.61322172	     -6.14627111	     -0.10545974	      1.00935108	     -0.01008855	     11.79351216	      0.11767490	      8.55063904	     18.87208953	     -3.95716318	    -11.85496341	    -61.53958005	      3.76286665	     -3.81615794	      0.00000000	     -2.33808112	      4.37321733	      1.40511676	     -6.60046755	      8.15446043	      1.47997608	      0.00000000
     15.28000000	    -10.09440346	      1.61771972	     -6.22474716	     -0.10683171	      1.00970965	     -0.01008520	     11.71557324	     -0.00768390	      8.73560564	     19.93460064	     -3.71348223	    -11.93320489	    -59.51303935	      4.12497860	     -3.90859883	      0.00000000	     -2.83976213	      4.19324121	      1.50473546	     -6.39213552	      8.38081166	      1.58835869	      0.00000000
     15.29000000	    -10.25811745	      1.59835448	     -6.33774577	     -0.10867147	      1.00971087	     -0.00987974	     11.77230197	     -0.05283739	      9.12660325	     20.83904063	     -3.52465803	    -12.11980974	    -57.22615588	      4.37255039	     -4.06610346	      0.00000000	     -3.33076706	      4.04176973	      1.91931678	     -6.29374557	      8.82034319	      1.68031549	      0.00000000
     15.30000000	    -10.34426048	      1.59057953	     -6.40445253	     -0.10991845	      1.00947017	     -0.00972412	     11.65870864	     -0.04089921	      9.13388416	     21.78952518	     -3.30273460	    -11.85338196	    -54.83643445	      4.64307858	     -4.03430904	      0.00000000	     -3.85799473	      4.03391798	      2.03961200	     -6.03299700	      9.15047419	      1.49499851	      0.00000000
     15.31000000	    -10.44269715	      1.57252597	     -6.48362323	     -0.11122136	      1.00926691	     -0.00944243	     11.61447633	     -0.01794014	      9.18986892	     22.51571425	     -3.04103330	    -11.50944515	    -52.10954466	      4.93468066	     -3.83328243	      0.00000000	     -4.45626835	      3.98919707	      2.25023700	     -5.74957653	      9.52811734	      1.24162079	      0.00000000
     15.32000000	    -10.54966592	      1.54683633	     -6.55205754	     -0.11252545	      1.00892773	     -0.00910544	     11.52738346	      0.03589020	      9.28332094	     23.21747774	     -2.83140048	    -11.28906622	    -49.08507393	      4.85630824	     -3.87198438	      0.00000000	     -4.97386443	      3.99405070	      2.61324977	     -5.54753034	      9.83303914	      0.99584733	      0.00000000
     15.33000000	    -10.66731207	      1.50308818	     -6.60979621	     -0.11382528	      1.00836075	     -0.00860237	     11.42080524	      0.16298762	      9.36437222	     23.84513683	     -2.66646580	    -10.89512301	    -45.98085171	      5.03959044	     -3.46559837	      0.00000000	     -5.42879261	      4.05177775	      2.96919323	     -5.40195612	      9.93164304	      0.89511616	      0.00000000
     15.34000000	    -10.79415268	      1.44161371	     -6.64753729	     -0.11515272	      1.00765100	     -0.00791925	     11.32467690	      0.32250680	      9.46317078	     24.34509028	     -2.51285531	    -10.51021061	    -42.66308214	      5.18490169	     -3.09743280	      0.00000000	     -5.86621043	      4.10755229	      3.38380774	     -5.28927562	     10.21914365	      0.68661767	      0.00000000
     15.35000000	    -10.87480881	      1.38775212	     -6.66034631	     -0.11616898	      1.00702982	     -0.00724026	     11.15200527	      0.46508478	      9.45255014	     24.73714657	     -2.32021462	     -9.98533921	    -39.08242898	      5.22139352	     -2.63523874	      0.00000000	     -6.34289076	      4.19532519	      3.69106239	     -5.08387847	     10.59643759	      0.41004709	      0.00000000
     15.36000000	    -10.95465876	      1.32673050	     -6.67741761	     -0.11708664	      1.00615506	     -0.00645961	     10.95654115	      0.64080483	      9.39073696	     25.04949167	     -2.12921862	     -9.34243997	    -35.35608158	      5.29533374	     -2.11064895	      0.00000000	     -6.80506443	      4.28868462	      3.89478411	     -4.86045484	     10.82033737	      0.16364025	      0.00000000
     15.37000000	    -11.03836309	      1.25379628	     -6.67519193	     -0.11796837	      1.00508067	     -0.00554830	     10.73397811	      0.86997996	      9.30908838	     25.26202856	     -2.00332667	     -8.53804338	    -31.46333343	      5.36753977	     -1.39527620	      0.00000000	     -7.20574791	      4.45236662	      4.09059210	     -4.76356851	     11.19109678	     -0.03281853	      0.00000000
     15.38000000	    -11.10890323	      1.17179495	     -6.67343011	     -0.11874048	      1.00408238	     -0.00451977	     10.49144310	      1.11831385	      9.24479732	     25.34312554	     -1.91217445	     -7.71048903	    -27.41324297	      5.34014998	     -0.77909809	      0.00000000	     -7.60298958	      4.60634336	      4.25611074	     -4.63464137	     11.41520086	     -0.24423298	      0.00000000
     15.39000000	    -11.16243180	      1.09254989	     -6.66721443	     -0.11937792	      1.00296259	     -0.00347380	     10.18075491	      1.36921563	      9.19193986	     25.40594710	     -1.86388830	     -7.00135728	    -23.38252946	      5.22207815	     -0.58022651	      0.00000000	     -7.94192424	      4.77639487	      4.51945266	     -4.52835810	     11.60556600	     -0.43313345	      0.00000000
     15.40000000	    -11.20907502	      1.01109574	     -6.64250411	     -0.11994263	      1.00167279	     -0.00232982	      9.81396550	      1.68062017	      9.14181937	     25.47349456	     -1.94321119	     -6.28062744	    -19.46431123	      5.20390309	     -0.29485041	      0.00000000	     -8.17132855	      5.02879499	      4.80527176	     -4.63728812	     11.90331726	     -0.53445351	      0.00000000
     15.41000000	    -11.24374408	      0.92166466	     -6.59043612	     -0.12039511	      1.00027622	     -0.00110594	      9.49379060	      1.97992230	      9.06793564	     25.41641085	     -2.01672739	     -5.58540268	    -15.70632658	      5.26538812	     -0.36175385	      0.00000000	     -8.45581742	      5.24284728	      4.94746712	     -4.66344589	     12.14910664	     -0.84791510	      0.00000000
     15.42000000	    -11.24520987	      0.83585925	     -6.57930116	     -0.12066426	      0.99896973	      0.00020420	      9.11582967	      2.30344955	      9.09931409	     25.37171923	     -2.18243103	     -4.99137670	    -12.25131466	      5.41311440	     -0.51224580	      0.00000000	     -8.68192683	      5.46762186	      5.22023811	     -4.79782423	     12.41039926	     -0.96204552	      0.00000000
